<svg width="96" height="109" viewBox="0 0 96 109" fill="none" xmlns="http://www.w3.org/2000/svg">
<g clip-path="url(#clip0_239_291)">
<path d="M94.7787 81.1824C95.5319 79.8776 96 78.4075 96 77.0873V31.2617C96 29.9416 95.5326 28.4718 94.779 27.167L48 54.1747L94.7787 81.1824Z" fill="#00599C"/>
<path d="M52.1567 107.2L91.843 84.2874C92.9862 83.6273 94.0253 82.4876 94.7785 81.1825L47.9999 54.1748L1.22119 81.1828C1.97445 82.4876 3.01382 83.6277 4.15672 84.2874L43.843 107.2C46.1291 108.52 49.8706 108.52 52.1567 107.2Z" fill="#004482"/>
<path d="M94.779 27.1669C94.0254 25.8618 92.986 24.722 91.8431 24.0619L52.1569 1.1493C49.8707 -0.17086 46.1293 -0.17086 43.8431 1.1493L4.15686 24.0619C1.87043 25.3818 0 28.6219 0 31.2619V77.0875C0 78.4076 0.467765 79.8778 1.22133 81.1825L48 54.1749L94.779 27.1669Z" fill="#659AD2"/>
<path d="M48 86.1748C30.3551 86.1748 16 71.8197 16 54.1748C16 36.5299 30.3551 22.1748 48 22.1748C59.3857 22.1748 70.0044 28.3019 75.7117 38.1648L61.8629 46.1786C59.0064 41.2418 53.6941 38.1748 48 38.1748C39.1774 38.1748 32 45.3522 32 54.1748C32 62.9971 39.1774 70.1748 48 70.1748C53.6947 70.1748 59.0071 67.1078 61.8638 62.1701L75.7126 70.1836C70.0053 80.0474 59.3864 86.1748 48 86.1748Z" fill="white"/>
<path d="M79.9997 52.3972H76.4439V48.8418H72.8888V52.3972H69.333V55.9527H72.8888V59.5085H76.4439V55.9527H79.9997V52.3972Z" fill="white"/>
<path d="M93.3337 52.3972H89.7779V48.8418H86.2228V52.3972H82.667V55.9527H86.2228V59.5085H89.7779V55.9527H93.3337V52.3972Z" fill="white"/>
</g>
<defs>
<clipPath id="clip0_239_291">
<rect width="96" height="108.031" fill="white" transform="translate(0 0.15918)"/>
</clipPath>
</defs>
</svg>
