<svg width="96" height="108" viewBox="0 0 96 108" fill="none" xmlns="http://www.w3.org/2000/svg">
<g clip-path="url(#clip0_239_286)">
<path fill-rule="evenodd" clip-rule="evenodd" d="M45.229 1.67111C46.9444 0.708588 49.0564 0.708588 50.7692 1.67111C59.245 6.42815 84.7506 20.7473 93.2289 25.5043C94.9443 26.4643 96.0003 28.2428 96.0003 30.1679C96.0003 39.682 96.0003 68.3177 96.0003 77.8318C96.0003 79.7568 94.9443 81.5354 93.2289 82.4979C84.7531 87.2549 59.2475 101.574 50.7692 106.331C49.0539 107.294 46.9419 107.294 45.229 106.331C36.7532 101.574 11.2476 87.2549 2.76932 82.4979C1.05649 81.5354 0.000488281 79.7594 0.000488281 77.8343C0.000488281 68.3202 0.000488281 39.6845 0.000488281 30.1704C0.000488281 28.2454 1.05649 26.4668 2.77185 25.5043C11.2451 20.7473 36.7558 6.42815 45.229 1.67111Z" fill="#004482"/>
<path fill-rule="evenodd" clip-rule="evenodd" d="M0.768486 80.2847C0.096488 79.3853 0.000488281 78.5314 0.000488281 77.382C0.000488281 67.9235 0.000488281 39.452 0.000488281 29.9909C0.000488281 28.076 1.05396 26.3076 2.76427 25.3526C11.2097 20.6234 36.6295 6.38761 45.0749 1.65583C46.7852 0.698361 49.1019 0.718571 50.8122 1.67604C59.2576 6.40529 84.5915 20.5198 93.0369 25.249C93.719 25.633 94.2394 26.0954 94.7043 26.7042L0.768486 80.2847Z" fill="#659AD2"/>
<path fill-rule="evenodd" clip-rule="evenodd" d="M48.0002 18.6328C67.521 18.6328 83.3685 34.4804 83.3685 54.0012C83.3685 73.5219 67.521 89.3695 48.0002 89.3695C28.4794 89.3695 12.6318 73.5219 12.6318 54.0012C12.6318 34.4804 28.4794 18.6328 48.0002 18.6328ZM48.0002 36.317C57.7593 36.317 65.6843 44.2395 65.6843 54.0012C65.6843 63.7603 57.7593 71.6853 48.0002 71.6853C38.241 71.6853 30.316 63.7603 30.316 54.0012C30.316 44.2395 38.2385 36.317 48.0002 36.317Z" fill="white"/>
<path fill-rule="evenodd" clip-rule="evenodd" d="M94.6992 26.7295C96.0028 27.9497 95.9775 29.7889 95.9775 31.2364C95.9775 40.8238 95.8967 68.0928 96.0003 77.6801C96.0104 78.6805 95.6794 79.734 95.1843 80.5273L46.9722 54.001L94.6992 26.7295Z" fill="#00599C"/>
</g>
<defs>
<clipPath id="clip0_239_286">
<rect width="96" height="106.105" fill="white" transform="translate(0.000488281 0.947754)"/>
</clipPath>
</defs>
</svg>
