<svg width="97" height="109" viewBox="0 0 97 109" fill="none" xmlns="http://www.w3.org/2000/svg">
<g clip-path="url(#clip0_239_301)">
<path d="M96.4792 0.29834L87.7353 98.2528L48.4309 109.149L9.23469 98.2682L0.5 0.29834H96.4792Z" fill="#264DE4"/>
<path d="M80.2496 92.0152L87.7219 8.30859H48.4897V100.82L80.2496 92.0152Z" fill="#2965F1"/>
<path d="M20.5239 44.6445L21.6008 56.66H48.4894V44.6445H20.5239Z" fill="#EBEBEB"/>
<path d="M48.4898 20.3247H48.4482H18.3604L19.4526 32.3404H48.4898V20.3247Z" fill="#EBEBEB"/>
<path d="M48.4894 88.3516V75.8503L48.4368 75.8643L35.0549 72.251L34.1995 62.668H27.6969H22.1377L23.8211 81.5342L48.4341 88.3669L48.4894 88.3516Z" fill="#EBEBEB"/>
<path d="M63.2441 56.66L61.8494 72.2434L48.4482 75.8604V88.3612L73.0809 81.5342L73.2616 79.5042L76.0851 47.8711L76.3783 44.6446L78.5475 20.3247H48.4482V32.3404H65.3794L64.2861 44.6446H48.4482V56.66H63.2441Z" fill="white"/>
</g>
<defs>
<clipPath id="clip0_239_301">
<rect width="96" height="108.899" fill="white" transform="translate(0.5 0.050293)"/>
</clipPath>
</defs>
</svg>
