<svg width="97" height="97" viewBox="0 0 97 97" fill="none" xmlns="http://www.w3.org/2000/svg">
<g clip-path="url(#clip0_239_313)">
<path d="M48.5 0.5C42.1965 0.5 35.9548 1.77238 30.1311 4.24449C24.3076 6.71661 19.0161 10.34 14.5589 14.9079C5.55714 24.1332 0.5 36.6452 0.5 49.6916C0.5 71.4344 14.276 89.8813 33.332 96.4238C35.732 96.8174 36.5 95.2924 36.5 93.9642V85.6508C23.204 88.6023 20.372 79.059 20.372 79.059C18.164 73.353 15.044 71.828 15.044 71.828C10.676 68.7781 15.38 68.8765 15.38 68.8765C20.18 69.2209 22.724 73.9433 22.724 73.9433C26.9 81.4202 33.956 79.2067 36.692 78.0261C37.124 74.8287 38.372 72.6642 39.716 71.4344C29.06 70.2046 17.876 65.974 17.876 47.2322C17.876 41.7718 19.7 37.3938 22.82 33.9013C22.34 32.6714 20.66 27.5555 23.3 20.9145C23.3 20.9145 27.332 19.5864 36.5 25.932C40.292 24.8499 44.42 24.3088 48.5 24.3088C52.58 24.3088 56.708 24.8499 60.5 25.932C69.668 19.5864 73.7 20.9145 73.7 20.9145C76.34 27.5555 74.66 32.6714 74.18 33.9013C77.3 37.3938 79.124 41.7718 79.124 47.2322C79.124 66.0233 67.892 70.1554 57.188 71.3852C58.916 72.9101 60.5 75.9109 60.5 80.4858V93.9642C60.5 95.2924 61.268 96.8664 63.716 96.4238C82.772 89.8321 96.5 71.4344 96.5 49.6916C96.5 43.2318 95.2585 36.835 92.8463 30.8668C90.434 24.8987 86.8984 19.4758 82.4411 14.9079C77.9838 10.34 72.6924 6.71661 66.8689 4.24449C61.0452 1.77238 54.8035 0.5 48.5 0.5Z" fill="white"/>
</g>
<defs>
<clipPath id="clip0_239_313">
<rect width="96" height="96" fill="white" transform="translate(0.5 0.5)"/>
</clipPath>
</defs>
</svg>
