<svg width="96" height="96" viewBox="0 0 96 96" fill="none" xmlns="http://www.w3.org/2000/svg">
<path d="M9.8906 38.5316L47.9868 88.0447L6.2306 57.0529C5.08497 56.1922 4.5956 54.6941 5.03435 53.3458L9.88497 38.5239L9.8906 38.5316Z" fill="#FCA326"/>
<path d="M32.1188 38.5239L48.0019 88.0389L47.9869 88.0446L9.89062 38.5314L9.90188 38.5239H32.1188Z" fill="#FC6D26"/>
<path d="M63.8866 38.5239L48.0035 88.0446L48.0018 88.0389L32.1187 38.5239H32.1355H63.8699H63.8866Z" fill="#E24329"/>
<path d="M86.1172 38.5314L48.0039 88.0446L63.887 38.5239H86.1058L86.1172 38.5314Z" fill="#FC6D26"/>
<path d="M90.9728 53.3461C91.3928 54.6942 90.9222 56.1925 89.7597 57.0532L48.0034 88.045L86.1167 38.5319L86.1222 38.5244L90.9728 53.3461Z" fill="#FCA326"/>
<path d="M76.5882 9.07916L86.1057 38.5242H63.887H63.8701L73.4045 9.07916C73.9424 7.58104 76.0651 7.58104 76.5882 9.07916Z" fill="#E24329"/>
<path d="M32.1356 38.5242H32.1187H9.90186L19.4194 9.07916C19.9575 7.58104 22.08 7.58104 22.6031 9.07916C22.6031 9.07916 32.1187 38.5242 32.1356 38.5242Z" fill="#E24329"/>
</svg>
