<svg width="96" height="96" viewBox="0 0 96 96" fill="none" xmlns="http://www.w3.org/2000/svg">
<path d="M62.4908 57.5847C64.1421 56.4559 66.4326 55.4791 66.4326 55.4791C66.4326 55.4791 59.9136 56.6584 53.4281 57.1975C45.4941 57.8543 36.9703 57.9889 32.6916 57.4163C22.5673 56.0688 38.2504 52.3456 38.2504 52.3456C38.2504 52.3456 32.1692 51.9417 24.6729 55.5462C15.8293 59.8251 46.572 61.7791 62.4908 57.5847Z" fill="#5382A1"/>
<path d="M48.1048 52.1769C44.9042 44.9841 34.1063 38.6668 48.1048 27.6163C65.5736 13.8369 56.6117 4.875 56.6117 4.875C60.2335 19.1094 43.8767 23.4219 37.9637 32.2658C33.9375 38.3132 39.9347 44.7988 48.1048 52.1769Z" fill="#F8981D"/>
<path d="M67.4099 22.4951C67.4267 22.4951 37.8968 29.8734 51.9964 46.1122C56.1572 50.8965 50.9014 55.209 50.9014 55.209C50.9014 55.209 61.4637 49.7512 56.6121 42.9287C52.0806 36.561 48.6104 33.3941 67.4099 22.4951Z" fill="#F8981D"/>
<path d="M66.3823 68.0621C66.2982 68.2643 66.0454 68.4834 66.0454 68.5001C87.6578 62.8232 79.7068 48.4706 69.3805 52.1096C68.4707 52.4297 67.9995 53.1709 67.9995 53.1709C67.9995 53.1709 68.572 52.9348 69.8526 52.6654C75.0743 51.5706 82.5707 59.6563 66.3823 68.0621Z" fill="#5382A1"/>
<path d="M74.3331 78.5575C74.3331 78.5575 76.7757 80.5622 71.6547 82.1288C61.9013 85.0766 31.0911 85.9693 22.5336 82.2469C19.451 80.9158 25.2288 79.0459 27.0483 78.6587C28.9347 78.2543 30.0297 78.3214 30.0297 78.3214C26.6101 75.9126 7.91165 83.0552 20.5289 85.0937C54.9273 90.6861 83.2615 82.5835 74.3331 78.5575Z" fill="#5382A1"/>
<path d="M36.667 71.583C23.4096 75.2891 44.7361 82.9371 61.6148 75.7101C58.8526 74.6323 56.8647 73.3856 56.8647 73.3856C49.3347 74.8176 45.8479 74.9184 39.0085 74.1437C33.3653 73.5036 36.667 71.583 36.667 71.583Z" fill="#5382A1"/>
<path d="M66.9547 87.9572C53.6975 90.4502 37.3407 90.1642 27.6543 88.5633C27.6543 88.5468 29.6422 90.1976 39.8504 90.8546C55.3818 91.8487 79.235 90.2985 79.7909 82.9541C79.7909 82.9541 78.713 85.7338 66.9547 87.9572Z" fill="#5382A1"/>
<path d="M59.6104 64.3393C49.6376 66.2599 43.8598 66.2092 36.5659 65.4512C30.9225 64.8615 34.6118 62.1328 34.6118 62.1328C19.9901 66.9842 42.7313 72.4761 63.1644 66.4957C60.9917 65.7375 59.6104 64.3393 59.6104 64.3393Z" fill="#5382A1"/>
</svg>
