<svg width="96" height="96" viewBox="0 0 96 96" fill="none" xmlns="http://www.w3.org/2000/svg">
<path d="M50.184 95.9997L47.628 95.1277C47.628 95.1277 47.94 82.0997 43.264 81.1637C40.148 77.5477 43.764 -72.1883 54.984 80.6637C54.984 80.6637 51.12 82.5957 50.432 85.8997C49.688 89.1437 50.184 95.9997 50.184 95.9997Z" fill="white"/>
<path d="M50.184 95.9997L47.628 95.1277C47.628 95.1277 47.94 82.0997 43.264 81.1637C40.148 77.5477 43.764 -72.1883 54.984 80.6637C54.984 80.6637 51.12 82.5957 50.432 85.8997C49.688 89.1437 50.184 95.9997 50.184 95.9997Z" fill="#A6A385"/>
<path d="M51.5568 83.4099C51.5568 83.4099 73.9368 68.6979 68.7008 38.0899C63.6528 15.8379 51.7448 8.54191 50.4368 5.73791C49.0048 3.74191 47.6328 0.253906 47.6328 0.253906L48.5688 62.1539C48.5648 62.2139 46.6328 81.1019 51.5568 83.4099Z" fill="white"/>
<path d="M51.5568 83.4099C51.5568 83.4099 73.9368 68.6979 68.7008 38.0899C63.6528 15.8379 51.7448 8.54191 50.4368 5.73791C49.0048 3.74191 47.6328 0.253906 47.6328 0.253906L48.5688 62.1539C48.5648 62.2139 46.6328 81.1019 51.5568 83.4099Z" fill="#499D4A"/>
<path d="M46.3198 84.216C46.3198 84.216 25.3118 69.88 26.5598 44.632C27.7438 19.384 42.5798 6.98 45.4478 4.736C47.3198 2.744 47.3798 1.996 47.5038 0C48.8118 2.804 48.5638 41.952 48.7518 46.564C49.3118 64.332 47.7558 80.852 46.3198 84.216Z" fill="white"/>
<path d="M46.3198 84.216C46.3198 84.216 25.3118 69.88 26.5598 44.632C27.7438 19.384 42.5798 6.98 45.4478 4.736C47.3198 2.744 47.3798 1.996 47.5038 0C48.8118 2.804 48.5638 41.952 48.7518 46.564C49.3118 64.332 47.7558 80.852 46.3198 84.216Z" fill="#58AA50"/>
</svg>
