<svg width="96" height="90" viewBox="0 0 96 90" fill="none" xmlns="http://www.w3.org/2000/svg">
<g clip-path="url(#clip0_239_376)">
<path d="M48.0002 53.8403C52.8202 53.8403 56.7275 49.933 56.7275 45.113C56.7275 40.2931 52.8202 36.3857 48.0002 36.3857C43.1803 36.3857 39.2729 40.2931 39.2729 45.113C39.2729 49.933 43.1803 53.8403 48.0002 53.8403Z" fill="#087EA4"/>
<path d="M48.0001 64.7493C72.0998 64.7493 91.6365 55.9578 91.6365 45.1129C91.6365 34.2681 72.0998 25.4766 48.0001 25.4766C23.9004 25.4766 4.36377 34.2681 4.36377 45.1129C4.36377 55.9578 23.9004 64.7493 48.0001 64.7493Z" stroke="#087EA4" stroke-width="4.36364"/>
<path d="M30.9945 54.9314C43.0444 75.8024 60.4263 88.3259 69.8183 82.9035C79.2102 77.481 77.0555 56.166 65.0057 35.2951C52.9558 14.4241 35.5738 1.90063 26.1819 7.32306C16.79 12.7455 18.9447 34.0605 30.9945 54.9314Z" stroke="#087EA4" stroke-width="4.36364"/>
<path d="M30.9944 35.2954C18.9445 56.1664 16.7898 77.4814 26.1818 82.9038C35.5737 88.3263 52.9557 75.8028 65.0055 54.9318C77.0554 34.0608 79.2101 12.7459 69.8181 7.32342C60.4262 1.90099 43.0442 14.4245 30.9944 35.2954Z" stroke="#087EA4" stroke-width="4.36364"/>
</g>
<defs>
<clipPath id="clip0_239_376">
<rect width="96" height="88.4509" fill="white" transform="translate(0 0.90918)"/>
</clipPath>
</defs>
</svg>
