<svg width="97" height="66" viewBox="0 0 97 66" fill="none" xmlns="http://www.w3.org/2000/svg">
<g clip-path="url(#clip0_239_363)">
<path d="M39.2928 43.2477C37.7842 51.4531 35.7952 57.4227 33.3258 61.1315C31.4015 63.9982 29.2937 65.4315 26.9985 65.4315C26.3866 65.4315 25.6325 65.2468 24.7363 64.8796V62.9011C25.1737 62.9653 25.687 62.9996 26.2765 62.9996C27.3473 62.9996 28.2101 62.7029 28.8674 62.1107C29.6536 61.389 30.0471 60.5784 30.0471 59.6796C30.0471 59.0656 29.7402 57.8054 29.1291 55.8995L25.064 43.2436H28.7028L31.6196 52.7095C32.2751 54.8582 32.5484 56.3588 32.439 57.2141C34.0347 52.9404 35.1499 48.2841 35.7835 43.2502H39.2916M23.2292 59.6162H19.5257C19.3954 53.3483 19.0343 47.4539 18.4442 41.9303H18.4116L12.7719 59.6162H9.9514L4.34604 41.9303H4.31302C3.89714 47.2335 3.63542 53.1265 3.5264 59.6162H0.148926C0.367095 51.7262 0.913377 44.3325 1.78685 37.4297H6.37725L11.7213 53.7297H11.7541L17.1311 37.4297H21.5235C22.4853 45.515 23.0532 52.9114 23.2274 59.6162" fill="#00758F"/>
<path d="M88.6018 59.6137H78.0787V37.4272H81.6199V56.8816H88.6018V59.6111M62.139 55.1724C61.2427 53.7259 60.7941 51.4056 60.7941 48.205C60.7941 42.6181 62.4888 39.8227 65.8755 39.8227C67.6467 39.8227 68.9468 40.4913 69.7769 41.8275C70.6722 43.2741 71.1205 45.5759 71.1205 48.7316C71.1205 54.3634 69.4259 57.1812 66.0392 57.1812C64.2692 57.1812 62.9679 56.5134 62.139 55.1751M75.3176 60.1482L71.2499 58.1368C71.612 57.839 71.956 57.5177 72.2673 57.1457C73.995 55.1105 74.8582 52.0973 74.8582 48.1075C74.8582 40.7665 71.9836 37.0947 66.2357 37.0947C63.4165 37.0947 61.219 38.0256 59.6457 39.8901C57.918 41.928 57.0549 44.9306 57.0549 48.8967C57.0549 52.7969 57.8193 55.6583 59.3488 57.4757C60.7425 59.1189 62.8503 59.9412 65.6734 59.9412C66.7263 59.9412 67.6928 59.8112 68.5705 59.5511L73.867 62.6422L75.3109 60.1477M55.5133 53.4627C55.5133 55.3448 54.8238 56.889 53.4491 58.098C52.0738 59.3014 50.2247 59.9049 47.911 59.9049C45.7465 59.9049 43.6493 59.2105 41.6167 57.8327L42.5674 55.9269C44.3162 56.8034 45.8987 57.241 47.3188 57.241C48.6518 57.241 49.6945 56.9437 50.4495 56.3561C51.2024 55.7643 51.6537 54.9386 51.6537 53.8919C51.6537 52.5745 50.7373 51.4489 49.0562 50.5039C47.5041 49.6498 44.4025 47.8669 44.4025 47.8669C42.7223 46.6376 41.879 45.3183 41.879 43.1458C41.879 41.3482 42.5073 39.895 43.7624 38.7903C45.0203 37.6827 46.6436 37.1286 48.6313 37.1286C50.6862 37.1286 52.5538 37.6784 54.2366 38.7745L53.382 40.679C51.9421 40.067 50.5232 39.7599 49.1229 39.7599C47.9872 39.7599 47.1115 40.0334 46.5017 40.5833C45.8881 41.1286 45.5088 41.8303 45.5088 42.6858C45.5088 43.9999 46.4451 45.1394 48.1735 46.1029C49.7455 46.9574 52.9236 48.7756 52.9236 48.7756C54.6526 50.0026 55.5145 51.311 55.5145 53.4663" fill="#F29111"/>
<path d="M91.1228 59.6144H91.7095V57.3574H92.4774V56.8963H90.3247V57.3574H91.1223L91.1228 59.6144ZM95.5878 59.6144H96.1408V56.8955H95.3091L94.6321 58.7486L93.8951 56.8955H93.0936V59.6144H93.6169V57.5449H93.6467L94.4185 59.6144H94.8172L95.5879 57.5449L95.5878 59.6144Z" fill="#F29111"/>
<path d="M59.1693 0.0638797C58.2337 0.049929 57.4179 0.403342 56.9968 1.43915C56.2748 3.18266 58.0664 4.89713 58.6823 5.78275C59.1364 6.39858 59.7251 7.09678 60.0444 7.79286C60.2318 8.24887 60.2859 8.73233 60.4738 9.21433C60.9012 10.3937 61.3014 11.7075 61.8636 12.8083C62.1568 13.3713 62.4772 13.9615 62.8515 14.4686C63.0674 14.7653 63.4404 14.8976 63.5211 15.3815C63.148 15.9171 63.1188 16.7212 62.9052 17.393C61.9432 20.422 62.3167 24.1756 63.681 26.4009C64.1077 27.071 65.1249 28.5456 66.4897 27.9821C67.6928 27.5003 67.4253 25.9719 67.7727 24.6323C67.8526 24.3083 67.7992 24.0958 67.9592 23.8816V23.9357C68.3333 24.6852 68.7088 25.4073 69.0562 26.1609C69.8863 27.4732 71.329 28.8402 72.5327 29.7509C73.1725 30.2353 73.6812 31.0651 74.4834 31.3611V31.2799H74.4307C74.2696 31.0393 74.0295 30.9315 73.8153 30.7447C73.3342 30.2618 72.801 29.6716 72.4255 29.1359C71.303 27.6352 70.3124 25.9722 69.4321 24.2564C69.003 23.4233 68.6294 22.5129 68.2815 21.6827C68.1215 21.3625 68.1214 20.8785 67.8534 20.7181C67.4513 21.3072 66.8646 21.8171 66.571 22.5381C66.0626 23.6923 66.0094 25.1131 65.8208 26.5874C65.7145 26.6154 65.7682 26.5876 65.7145 26.641C64.8599 26.4267 64.5657 25.542 64.2442 24.7932C63.4421 22.8874 63.3072 19.8306 64.0036 17.6331C64.1898 17.0711 64.9944 15.3023 64.6721 14.7651C64.5104 14.2535 63.976 13.9613 63.6823 13.5574C63.3356 13.0482 62.9593 12.4059 62.7211 11.8416C62.079 10.341 61.7563 8.67797 61.0634 7.17732C60.7423 6.47912 60.1793 5.75585 59.7264 5.11309C59.2173 4.38902 58.6566 3.87983 58.2548 3.02246C58.1222 2.72695 57.935 2.24375 58.148 1.92303C58.2005 1.70816 58.3091 1.62765 58.5234 1.5738C58.869 1.27882 59.859 1.6534 60.2061 1.81441C61.1962 2.21538 62.0249 2.59246 62.8524 3.15405C63.2271 3.42264 63.6284 3.93236 64.1089 4.06751H64.6717C65.527 4.25374 66.4904 4.11939 67.2929 4.3617C68.7091 4.81705 69.992 5.48726 71.1429 6.2108C74.6444 8.43605 77.5322 11.601 79.4829 15.3797C79.8046 15.9956 79.9395 16.5587 80.2331 17.2011C80.7947 18.5174 81.4909 19.8579 82.0519 21.1435C82.6129 22.4037 83.1485 23.6894 83.9511 24.7361C84.351 25.2981 85.956 25.593 86.6779 25.8882C87.2115 26.1286 88.0413 26.3434 88.5231 26.6378C89.432 27.1998 90.3392 27.8443 91.1957 28.4618C91.6224 28.7836 92.959 29.4532 93.0395 29.9902C90.9001 29.9366 89.2429 30.1511 87.8531 30.7414C87.452 30.9021 86.8109 30.9019 86.756 31.4114C86.9714 31.6255 86.9974 31.974 87.1859 32.2702C87.5058 32.8063 88.0661 33.5291 88.5757 33.9055C89.1373 34.3347 89.6986 34.7621 90.2875 35.1373C91.3295 35.7835 92.5062 36.1573 93.5211 36.8003C94.1112 37.1751 94.6975 37.6574 95.2871 38.0606C95.5802 38.275 95.7656 38.6241 96.1415 38.7567V38.6751C95.9531 38.4345 95.9008 38.0863 95.7146 37.8166C95.4478 37.5506 95.1796 37.3078 94.9117 37.0408C94.1359 35.9954 93.1722 35.0848 92.1321 34.3338C91.2758 33.7424 89.4027 32.9375 89.0569 31.9489C89.0569 31.9489 89.0286 31.9207 89.0023 31.8943C89.5907 31.8399 90.2876 31.6251 90.8488 31.4625C91.7566 31.2219 92.5857 31.276 93.5214 31.0355C93.9499 30.9275 94.3778 30.7929 94.8074 30.6612V30.4182C94.3235 29.9367 93.9777 29.292 93.4704 28.837C92.1083 27.6579 90.609 26.5062 89.0581 25.5388C88.2281 25.0024 87.1589 24.6557 86.2759 24.1991C85.9565 24.038 85.4224 23.9587 85.2344 23.689C84.7528 23.0994 84.4842 22.323 84.1374 21.6248C83.3628 20.1518 82.613 18.5166 81.9451 16.9591C81.464 15.9144 81.1699 14.8698 80.5817 13.9037C77.8259 9.34499 74.8325 6.5852 70.2342 3.87689C69.2447 3.31319 68.0683 3.07245 66.8132 2.77746C66.1436 2.74939 65.4762 2.69706 64.807 2.67072C64.3786 2.48224 63.9498 1.97226 63.5761 1.73112C62.6232 1.12822 60.7306 0.0852806 59.1718 0.0615234L59.1693 0.0638797ZM65.7659 6.6908C65.3122 6.6908 64.9922 6.74594 64.6693 6.82555V6.87918H64.7215C64.9374 7.30707 65.3124 7.60443 65.5774 7.97913C65.7928 8.40821 65.9801 8.83544 66.1938 9.26505C66.2201 9.23871 66.2455 9.21095 66.2455 9.21095C66.6226 8.94408 66.8097 8.5154 66.8097 7.87131C66.648 7.68231 66.6228 7.49608 66.4879 7.30761C66.328 7.04008 65.9802 6.90553 65.7659 6.6908Z" fill="#00758F"/>
</g>
<defs>
<clipPath id="clip0_239_363">
<rect width="96" height="65.3717" fill="white" transform="translate(0.149902 0.0644531)"/>
</clipPath>
</defs>
</svg>
