<svg width="96" height="96" viewBox="0 0 96 96" fill="none" xmlns="http://www.w3.org/2000/svg">
<g clip-path="url(#clip0_239_353)">
<path d="M96 0H0V96H96V0Z" fill="#F7DF1E"/>
<path d="M64.4875 75.0002C66.4212 78.1575 68.937 80.4782 73.3866 80.4782C77.1245 80.4782 79.5123 78.6101 79.5123 76.0287C79.5123 72.9354 77.059 71.8398 72.9447 70.0402L70.6894 69.0725C64.1797 66.2992 59.8551 62.8249 59.8551 55.4802C59.8551 48.7144 65.0102 43.564 73.0666 43.564C78.8022 43.564 82.9256 45.5602 85.897 50.7868L78.8723 55.2973C77.3256 52.524 75.657 51.4314 73.0666 51.4314C70.4243 51.4314 68.7496 53.1076 68.7496 55.2973C68.7496 58.0036 70.4258 59.0992 74.2963 60.7754L76.5515 61.7415C84.2163 65.0283 88.5439 68.3792 88.5439 75.9129C88.5439 84.0348 82.1637 88.4843 73.5953 88.4843C65.2174 88.4843 59.8049 84.492 57.1565 79.2592L64.4875 75.0002ZM32.6201 75.7819C34.0372 78.2962 35.3264 80.4219 38.4258 80.4219C41.3896 80.4219 43.2593 79.2622 43.2593 74.7533V44.079H52.2803V74.8752C52.2803 84.2161 46.8037 88.4676 38.8098 88.4676C31.587 88.4676 27.4041 84.7297 25.2769 80.2276L32.6201 75.7819Z" fill="black"/>
</g>
<defs>
<clipPath id="clip0_239_353">
<rect width="96" height="96" fill="white"/>
</clipPath>
</defs>
</svg>
