<svg width="96" height="96" viewBox="0 0 96 96" fill="none" xmlns="http://www.w3.org/2000/svg">
<path d="M36.3763 45.0466H56.0739C61.5519 45.0466 65.9231 40.5277 65.9231 35.0315V16.2374C65.9231 10.889 61.4228 6.88661 56.0739 5.98286C49.4713 4.89461 42.2968 4.94992 36.3763 6.00105C28.0397 7.47667 26.5275 10.5569 26.5275 16.256V20.2784H46.2435V26.2707H19.1316C13.3958 26.2707 8.37863 29.7196 6.81113 36.2673C5.00363 43.7739 4.92994 48.4586 6.81113 56.2972C8.21288 62.1256 11.5511 66.2936 17.2871 66.2936H24.0561V57.2934C24.0559 50.7828 29.6813 45.0466 36.3763 45.0466Z" fill="#347AB4"/>
<path d="M89.0581 39.2563C87.6378 33.5573 84.9453 29.2598 79.2093 29.2598H71.8137V38.0021C71.8137 44.7895 66.059 50.5067 59.4931 50.5067H39.7953C34.4095 50.5067 29.9463 55.1181 29.9463 60.5218V79.2977C29.9463 84.646 34.594 87.7813 39.7953 89.3126C46.0291 91.1383 52.0231 91.4706 59.4929 89.3126C64.4545 87.8736 69.3421 84.9784 69.3421 79.2977V75.3608H49.6629V69.2826H79.2091C84.9453 69.2826 87.0661 65.2802 89.0579 59.2862C91.1238 53.1073 91.0317 47.1685 89.0581 39.2563Z" fill="#FFCA1D"/>
<path d="M35.1408 16.7981C33.176 16.7981 31.583 15.1872 31.583 13.2048C31.6006 11.2046 33.176 9.59375 35.1408 9.59375C37.088 9.59375 38.6988 11.2222 38.6988 13.2048C38.6986 15.1872 37.1056 16.7981 35.1408 16.7981Z" fill="white"/>
<path d="M59.0458 86.2639C57.081 86.2639 55.4878 84.6531 55.4878 82.6706C55.5056 80.6704 57.0808 79.0596 59.0458 79.0596C60.993 79.0596 62.6038 80.688 62.6038 82.6706C62.6038 84.6531 61.0108 86.2639 59.0458 86.2639Z" fill="white"/>
</svg>
