<svg width="96" height="97" viewBox="0 0 96 97" fill="none" xmlns="http://www.w3.org/2000/svg">
<path fill-rule="evenodd" clip-rule="evenodd" d="M52.6003 63.2371C51.7689 63.5344 50.8723 63.6959 49.9374 63.6959H46.0626C41.7153 63.6959 38.2174 60.1816 38.2174 55.8466V44.1538C38.2174 39.7737 41.7298 36.3046 46.0626 36.3046H49.9374C54.2847 36.3046 57.7826 39.8188 57.7826 44.1538V55.8466C57.7826 57.8238 57.0669 59.6153 55.8831 60.986L58.8304 63.9332L56.0635 66.7002L52.6003 63.2371ZM49.1461 59.7828H46.0394C43.8626 59.7828 42.1304 58.0312 42.1304 55.8705V44.1299C42.1304 41.9539 43.8805 40.2176 46.0394 40.2176H49.9606C52.1374 40.2176 53.8696 41.9692 53.8696 44.1299V55.8705C53.8696 56.7488 53.5844 57.5555 53.1024 58.2053L47.7626 52.8655L44.9957 55.6324L49.1461 59.7828ZM14.7659 24.5654C8.26779 24.5654 3 29.8178 3 36.2998V63.7006C3 70.1813 8.22779 75.435 14.7659 75.435H81.2341C87.7322 75.435 93 70.1827 93 63.7006V36.2998C93 29.8191 87.7722 24.5654 81.2341 24.5654H14.7659ZM22.5843 36.3046C18.2515 36.3046 14.7391 39.7783 14.7391 44.1306C14.7391 48.4529 18.2129 51.9567 22.5652 51.9567H26.4416C28.623 51.9567 30.3913 53.6936 30.3913 55.8698C30.3913 58.0309 28.6592 59.7828 26.4823 59.7828H22.5611C20.4023 59.7828 18.6522 57.9974 18.6522 55.8873V55.843H14.7391V55.8656C14.7391 60.1901 18.237 63.6959 22.5843 63.6959H26.4592C30.7919 63.6959 34.3043 60.2221 34.3043 55.8698C34.3043 51.5475 30.8306 48.0437 26.4783 48.0437H22.6019C20.4205 48.0437 18.6522 46.3068 18.6522 44.1306C18.6522 41.9695 20.3843 40.2176 22.5611 40.2176H26.4823C28.6412 40.2176 30.3913 41.9909 30.3913 44.1306H34.3043C34.3043 39.8084 30.8065 36.3046 26.4592 36.3046H22.5843ZM81.2609 59.7828V63.6959H61.6957V36.3046H65.6087V59.7828H81.2609Z" fill="#157EFB"/>
</svg>
