<svg width="96" height="59" viewBox="0 0 96 59" fill="none" xmlns="http://www.w3.org/2000/svg">
<g clip-path="url(#clip0_239_430)">
<mask id="mask0_239_430" style="mask-type:luminance" maskUnits="userSpaceOnUse" x="0" y="0" width="96" height="58">
<path d="M0 0.166016H96V57.766H0V0.166016Z" fill="white"/>
</mask>
<g mask="url(#mask0_239_430)">
<path fill-rule="evenodd" clip-rule="evenodd" d="M48 0.166016C35.2 0.166016 27.2 6.56602 24 19.366C28.8 12.966 34.4 10.566 40.8 12.166C44.4516 13.078 47.0613 15.7287 49.9502 18.6602C54.656 23.4371 60.1031 28.966 72 28.966C84.8 28.966 92.8 22.566 96 9.76602C91.2 16.166 85.6 18.566 79.2 16.966C75.5484 16.054 72.9387 13.4033 70.0498 10.4718C65.344 5.6949 59.8969 0.166016 48 0.166016ZM24 28.966C11.2 28.966 3.2 35.366 0 48.166C4.8 41.766 10.4 39.366 16.8 40.966C20.4516 41.8798 23.0613 44.5287 25.9502 47.4602C30.656 52.2371 36.1031 57.766 48 57.766C60.8 57.766 68.8 51.366 72 38.566C67.2 44.966 61.6 47.366 55.2 45.766C51.5484 44.854 48.9387 42.2033 46.0498 39.2718C41.344 34.4949 35.8969 28.966 24 28.966Z" fill="#38BDF8"/>
</g>
</g>
<defs>
<clipPath id="clip0_239_430">
<rect width="96" height="58.6667" fill="white" transform="translate(0 0.166992)"/>
</clipPath>
</defs>
</svg>
