<svg width="464" height="381" viewBox="0 0 464 381" fill="none" xmlns="http://www.w3.org/2000/svg">
<path d="M211.448 1.02266H2.63697V70.693H164.628L211.448 1.02266Z" fill="#E5ECCF"/>
<path d="M344.743 1.02266H262.425L0.968506 380.394H82.8911L344.743 1.02266Z" fill="#E5ECCF"/>
<path d="M463.096 1.02266H394.827V159.84H287.539L238.857 227.299H394.827V379.869H463.096V1.02266Z" fill="#E5ECCF"/>
<path d="M351.521 312.841H179.047L131.756 379.869H351.521V312.841Z" fill="#E5ECCF"/>
<path d="M211.448 1.02266H2.63697V70.693H164.628L211.448 1.02266Z" stroke="black"/>
<path d="M344.743 1.02266H262.425L0.968506 380.394H82.8911L344.743 1.02266Z" stroke="black"/>
<path d="M463.096 1.02266H394.827V159.84H287.539L238.857 227.299H394.827V379.869H463.096V1.02266Z" stroke="black"/>
<path d="M351.521 312.841H179.047L131.756 379.869H351.521V312.841Z" stroke="black"/>
</svg>
